<?xml version="1.0" encoding="UTF-8" standalone="no"?>
<!-- Created with Inkscape (http://www.inkscape.org/) -->

<svg
   xmlns:dc="http://purl.org/dc/elements/1.1/"
   xmlns:cc="http://creativecommons.org/ns#"
   xmlns:rdf="http://www.w3.org/1999/02/22-rdf-syntax-ns#"
   xmlns:svg="http://www.w3.org/2000/svg"
   xmlns="http://www.w3.org/2000/svg"
   xmlns:sodipodi="http://sodipodi.sourceforge.net/DTD/sodipodi-0.dtd"
   xmlns:inkscape="http://www.inkscape.org/namespaces/inkscape"
   width="744.09448819"
   height="1052.3622047"
   id="svg2"
   version="1.1"
   inkscape:version="0.48.2 r9819"
   sodipodi:docname="rcharts logo.svg">
  <defs
     id="defs4">
    <inkscape:path-effect
       effect="spiro"
       id="path-effect3059"
       is_visible="true" />
    <inkscape:path-effect
       effect="spiro"
       id="path-effect3051"
       is_visible="true" />
    <inkscape:path-effect
       effect="spiro"
       id="path-effect3059-1"
       is_visible="true" />
    <inkscape:path-effect
       effect="spiro"
       id="path-effect3051-7"
       is_visible="true" />
    <inkscape:path-effect
       effect="spiro"
       id="path-effect3059-1-9"
       is_visible="true" />
    <inkscape:path-effect
       effect="spiro"
       id="path-effect3051-7-4"
       is_visible="true" />
    <inkscape:path-effect
       effect="spiro"
       id="path-effect3059-1-9-2"
       is_visible="true" />
    <inkscape:path-effect
       effect="spiro"
       id="path-effect3051-7-4-4"
       is_visible="true" />
    <inkscape:path-effect
       effect="spiro"
       id="path-effect3059-1-9-2-1"
       is_visible="true" />
    <inkscape:path-effect
       effect="spiro"
       id="path-effect3051-7-4-4-7"
       is_visible="true" />
  </defs>
  <sodipodi:namedview
     id="base"
     pagecolor="#ffffff"
     bordercolor="#666666"
     borderopacity="1.0"
     inkscape:pageopacity="0.0"
     inkscape:pageshadow="2"
     inkscape:zoom="1.16"
     inkscape:cx="479.02797"
     inkscape:cy="434.84848"
     inkscape:document-units="px"
     inkscape:current-layer="layer1"
     showgrid="false"
     inkscape:window-width="1366"
     inkscape:window-height="706"
     inkscape:window-x="-8"
     inkscape:window-y="-8"
     inkscape:window-maximized="1" />
  <metadata
     id="metadata7">
    <rdf:RDF>
      <cc:Work
         rdf:about="">
        <dc:format>image/svg+xml</dc:format>
        <dc:type
           rdf:resource="http://purl.org/dc/dcmitype/StillImage" />
        <dc:title></dc:title>
      </cc:Work>
    </rdf:RDF>
  </metadata>
  <g
     inkscape:label="Layer 1"
     inkscape:groupmode="layer"
     id="layer1">
    <path
       style="fill:#7752a0;fill-opacity:1;stroke:none"
       d="m 163.00001,547.29324 c 3.12789,-4.12235 7.24519,-7.48861 11.90688,-9.73496 5.08249,-2.44912 10.70205,-3.54736 16.28682,-4.34756 5.58476,-0.8002 11.22865,-1.33017 16.69113,-2.74128 11.36727,-2.93649 21.48703,-9.59091 30.16063,-17.50334 18.38654,-16.77298 30.83604,-39.22694 39.19591,-62.66857 3.89987,-10.93548 7.05515,-22.32349 13.39905,-32.04711 3.17195,-4.8618 7.14528,-9.26167 11.98221,-12.47144 4.83693,-3.20976 10.57287,-5.18594 16.37736,-5.10641 8.09472,0.11091 15.76036,4.20343 21.5665,9.84484 6.69914,6.50907 11.20576,14.98687 14.35603,23.78018 3.15027,8.79331 5.03487,17.97773 7.1846,27.06757 6.82802,28.87138 16.42521,57.08717 28.61701,84.13414 l -227.72413,1.79394"
       id="path3049"
       inkscape:path-effect="#path-effect3051"
       inkscape:original-d="m 163.00001,547.29324 c 0,0 7.28738,-7.51171 11.90688,-9.73496 10.13146,-4.87601 28.12597,-14.60004 32.97795,-7.08884 11.8467,18.33953 71.22598,-34.43777 30.16063,-17.50334 -26.47249,10.91665 34.03099,-47.38677 39.19591,-62.66857 21.68388,-64.15749 61.62278,-50.56782 41.75862,-49.62496 -31.4962,1.49498 29.27679,20.042 21.5665,9.84484 -8.55825,-11.31862 8.71796,10.63738 21.54063,50.84775 11.69008,36.65866 38.25369,69.35696 28.61701,84.13414 -53.88996,58.10619 -174.30095,-56.7417 -227.72413,1.79394 z"
       inkscape:connector-curvature="0"
       sodipodi:nodetypes="casssssscc" />
    <path
       style="fill:#b296c6;fill-opacity:1;stroke:#ffffff;stroke-width:4.5;stroke-linecap:butt;stroke-linejoin:miter;stroke-miterlimit:4;stroke-opacity:1;stroke-dasharray:none"
       d="m 228.44827,547.18977 c 18.59504,-4.69486 36.11348,-13.60255 50.86208,-25.86207 4.58815,-3.81382 8.92116,-7.95346 13.80214,-11.38454 4.88099,-3.43107 10.42962,-6.16661 16.37027,-6.71891 2.76268,-0.25684 5.62069,-0.021 8.16192,1.09278 2.54123,1.11378 4.73652,3.17738 5.63118,5.80377 0.52854,1.5516 0.59337,3.23108 0.41465,4.86045 -0.17872,1.62938 -0.59057,3.22392 -1.04311,4.79937 -0.90508,3.15088 -1.83241,6.29636 -2.56352,9.49209 l -3.70457,16.19292"
       id="path3057"
       inkscape:path-effect="#path-effect3059"
       inkscape:original-d="m 228.44827,547.18977 c 0,0 33.27211,-23.54603 50.86208,-25.86207 18.27342,-2.40604 18.53583,-17.99966 30.17241,-18.10345 27.07385,-0.24148 13.03798,1.12724 13.7931,6.89655 3.06899,23.44798 -1.90116,12.99477 -3.19198,19.15191 l -3.70457,16.19292"
       inkscape:connector-curvature="0"
       sodipodi:nodetypes="cssscc" />
    <path
       style="fill:#da1f26;fill-opacity:1;stroke:none"
       d="m 355.75081,406.98761 c 4.87887,1.72454 9.33874,4.6217 12.89755,8.37833 3.88006,4.09573 6.63684,9.11427 9.09914,14.19039 2.4623,5.07612 4.68519,10.29083 7.69218,15.0645 6.25747,9.93388 15.67666,17.54766 25.85392,23.40097 21.57403,12.40801 46.75212,17.43138 71.62607,18.25856 11.60366,0.38588 23.4117,-0.0752 34.605,3.00758 5.59665,1.54141 10.99724,3.98679 15.52709,7.61706 4.52985,3.63028 8.15833,8.49242 9.84954,14.04564 2.35849,7.74431 0.79372,16.29195 -2.81249,23.53985 -4.16085,8.36264 -10.86442,15.23614 -18.28141,20.91369 -7.417,5.67756 -15.59183,10.26857 -23.59586,15.08334 -25.42261,15.29279 -49.37778,33.02375 -71.42977,52.87037 L 355.75081,406.98761"
       id="path3049-4"
       inkscape:path-effect="#path-effect3051-7"
       inkscape:original-d="m 355.75081,406.98761 c 0,0 9.37358,4.65486 12.89755,8.37833 7.72874,8.1663 22.46903,22.34668 16.79132,29.25489 -13.86285,16.86725 54.48546,57.36231 25.85392,23.40097 -18.45711,-21.89294 55.49727,17.99074 71.62607,18.25856 67.71343,1.12439 66.92664,43.30468 59.98163,24.67028 -11.01188,-29.5463 -10.17858,33.98837 -2.81249,23.53985 8.17621,-11.5976 -7.47867,11.54237 -41.87727,35.99703 -31.36024,22.29464 -54.42038,57.55134 -71.42977,52.87037 -71.75327,-33.64407 0.98929,-183.30156 -71.03096,-216.37028 z"
       inkscape:connector-curvature="0"
       sodipodi:nodetypes="casssssscc" />
    <path
       style="fill:#f38081;fill-opacity:1;stroke:#ffffff;stroke-width:4.5;stroke-linecap:butt;stroke-linejoin:miter;stroke-miterlimit:4;stroke-opacity:1;stroke-dasharray:none"
       d="m 375.77266,469.29821 c 10.13261,16.28335 23.95038,30.25876 40.11774,40.57543 5.02951,3.20942 10.29171,6.07662 15.04578,9.68149 4.75408,3.60487 9.04886,8.05743 11.38336,13.54801 1.08565,2.55338 1.73101,5.34754 1.44368,8.10722 -0.28734,2.75967 -1.58473,5.47896 -3.81413,7.13067 -1.31707,0.97578 -2.8971,1.54878 -4.50356,1.87455 -1.60645,0.32576 -3.25068,0.41886 -4.88911,0.46738 -3.27686,0.097 -6.55535,0.17125 -9.82197,0.44766 l -16.55214,1.40059"
       id="path3057-0"
       inkscape:path-effect="#path-effect3059-1"
       inkscape:original-d="m 375.77266,469.29821 c 0,0 32.557,24.5253 40.11774,40.57543 7.85451,16.67373 22.78795,12.17679 26.42914,23.2295 8.47164,25.71543 2.89518,12.76235 -2.37045,15.23789 -21.4009,10.0612 -12.95678,2.14484 -19.21464,2.78959 l -16.55214,1.40059"
       inkscape:connector-curvature="0"
       sodipodi:nodetypes="cssscc" />
    <path
       style="fill:#e19426;fill-opacity:1;stroke:none"
       d="m 548.40689,546.81833 c 0.008,5.17468 -1.22977,10.34697 -3.57873,14.9578 -2.561,5.02704 -6.36753,9.30442 -10.32687,13.32357 -3.95934,4.01914 -8.1294,7.85906 -11.62144,12.29027 -7.26684,9.22122 -11.28922,20.64538 -13.39895,32.1947 -4.47226,24.48258 -0.77955,49.88994 6.76559,73.60636 3.5198,11.06367 7.90616,22.03647 8.74719,33.61604 0.42051,5.78978 -0.0764,11.69734 -1.98134,17.18093 -1.90492,5.48359 -5.27233,10.53006 -9.93932,13.98225 -6.50841,4.81429 -15.08683,6.20041 -23.12368,5.22783 -9.27292,-1.12217 -17.99356,-5.13881 -25.82597,-10.22797 -7.83242,-5.08917 -14.89459,-11.25612 -22.11043,-17.18722 -22.91917,-18.83853 -47.6448,-35.47826 -73.72715,-49.6165 l 180.1211,-139.34806"
       id="path3049-4-8"
       inkscape:path-effect="#path-effect3051-7-4"
       inkscape:original-d="m 548.40689,546.81833 c 0,0 -1.24935,10.3909 -3.57873,14.9578 -5.1088,10.01609 -13.5383,28.65216 -21.94831,25.61384 -20.5341,-7.41844 -35.81972,70.54111 -13.39895,32.1947 14.45339,-24.71973 1.62011,58.318 6.76559,73.60636 21.60225,64.18501 -18.40901,77.56017 -3.17347,64.77922 24.15713,-20.2652 -35.4349,1.78334 -23.12368,5.22783 13.66517,3.82333 -13.37967,-3.18449 -47.9364,-27.41519 -31.50441,-22.09044 -72.44562,-32.02136 -73.72715,-49.6165 7.69014,-78.87532 173.06249,-60.4137 180.1211,-139.34806 z"
       inkscape:connector-curvature="0"
       sodipodi:nodetypes="casssssscc" />
    <path
       style="fill:#fcbd5f;fill-opacity:1;stroke:#ffffff;stroke-width:4.5;stroke-linecap:butt;stroke-linejoin:miter;stroke-miterlimit:4;stroke-opacity:1;stroke-dasharray:none"
       d="m 496.39022,586.53924 c -11.95325,14.9979 -20.49834,32.69604 -24.80933,51.38381 -1.34111,5.81358 -2.28186,11.73191 -4.0878,17.41829 -1.80593,5.68638 -4.56439,11.22365 -8.95706,15.26107 -2.0428,1.87759 -4.45985,3.42087 -7.15656,4.07369 -2.6967,0.65282 -5.69338,0.34031 -7.99596,-1.20775 -1.3603,-0.91455 -2.42905,-2.21171 -3.27366,-3.6165 -0.84462,-1.40479 -1.48263,-2.92305 -2.07669,-4.45076 -1.18812,-3.05542 -2.35526,-6.12002 -3.70898,-9.10576 l -6.85936,-15.12891"
       id="path3057-0-8"
       inkscape:path-effect="#path-effect3059-1-9"
       inkscape:original-d="m 496.39022,586.53924 c 0,0 -12.21511,38.88752 -24.80933,51.38381 -13.08355,12.98181 -3.84812,25.54911 -13.04486,32.67936 -21.39731,16.58937 -11.05746,6.99943 -15.15252,2.86594 -16.64329,-16.7996 -6.35743,-11.4918 -9.05933,-17.17302 l -6.85936,-15.12891"
       inkscape:connector-curvature="0"
       sodipodi:nodetypes="cssscc" />
    <path
       style="fill:#6aaa43;fill-opacity:1;stroke:none"
       d="m 473.1855,781.27415 c -4.92604,1.58479 -10.22938,1.98289 -15.33681,1.15127 -5.56847,-0.90669 -10.80263,-3.22814 -15.83743,-5.77386 -5.0348,-2.54572 -9.96315,-5.34676 -15.24795,-7.3218 -10.99753,-4.11001 -23.10412,-4.45846 -34.74688,-2.94712 -24.68063,3.20377 -47.75305,14.4658 -68.04065,28.88145 -9.46413,6.72488 -18.57757,14.24737 -29.34963,18.57825 -5.38603,2.16543 -11.1639,3.49298 -16.96718,3.35032 -5.80329,-0.14265 -11.63608,-1.81145 -16.34663,-5.20396 -6.56916,-4.73107 -10.50431,-12.47867 -12.02794,-20.42948 -1.75796,-9.17366 -0.59086,-18.70364 1.86849,-27.71464 2.45935,-9.01099 6.17998,-17.61694 9.62914,-26.29736 10.95533,-27.57099 19.26581,-56.19219 24.7803,-85.34298 L 473.1855,781.27415"
       id="path3049-4-8-5"
       inkscape:path-effect="#path-effect3051-7-4-4"
       inkscape:original-d="m 473.1855,781.27415 c 0,0 -10.2772,1.97762 -15.33681,1.15127 -11.09673,-1.81238 -31.41542,-4.15973 -31.08538,-13.09566 0.80582,-21.81819 -78.10284,-12.6114 -34.74688,-2.94712 27.94911,6.23002 -55.04847,19.32042 -68.04065,28.88145 -54.54498,40.13999 -79.48041,6.1103 -62.66344,16.72461 26.66464,16.8298 -12.50029,-33.20475 -12.02794,-20.42948 0.52428,14.18027 -1.04568,-13.71361 11.49763,-54.012 11.43536,-36.73891 8.41327,-78.75882 24.7803,-85.34298 77.46547,-16.71992 110.29398,146.40928 187.62317,129.06991 z"
       inkscape:connector-curvature="0"
       sodipodi:nodetypes="casssssscc" />
    <path
       style="fill:#abcf37;fill-opacity:1;stroke:#ffffff;stroke-width:4.5;stroke-linecap:butt;stroke-linejoin:miter;stroke-miterlimit:4;stroke-opacity:1;stroke-dasharray:none"
       d="m 419.49855,743.84157 c -17.92785,-6.81243 -37.3885,-9.55578 -56.50096,-7.96489 -5.9457,0.49491 -11.86912,1.40305 -17.83537,1.41648 -5.96625,0.0134 -12.08086,-0.92578 -17.26516,-3.87863 -2.41095,-1.37321 -4.61757,-3.20478 -6.06137,-5.57413 -1.44381,-2.36934 -2.05967,-5.31866 -1.2872,-7.98355 0.45635,-1.57434 1.36598,-2.98765 2.44644,-4.22029 1.08046,-1.23265 2.33197,-2.30312 3.60588,-3.3346 2.54782,-2.06297 5.11076,-4.10877 7.54174,-6.30822 l 12.31787,-11.14473"
       id="path3057-0-8-5"
       inkscape:path-effect="#path-effect3059-1-9-2"
       inkscape:original-d="m 419.49855,743.84157 c 0,0 -40.76027,0.22059 -56.50096,-7.96489 -16.35228,-8.50351 -25.50614,4.12332 -35.10053,-2.46215 -22.32246,-15.32186 -10.037,-8.3975 -7.34857,-13.55768 10.92655,-20.97228 9.00687,-9.55797 13.59406,-13.86311 l 12.31787,-11.14473"
       inkscape:connector-curvature="0"
       sodipodi:nodetypes="cssscc" />
    <path
       style="fill:#0a98d1;fill-opacity:1;stroke:none"
       d="m 234.57009,778.86165 c -2.89251,-4.29078 -4.75013,-9.27407 -5.37206,-14.41125 -0.67807,-5.6009 0.0958,-11.27424 1.14048,-16.81847 1.04471,-5.54423 2.36428,-11.05722 2.7913,-16.68284 0.88861,-11.70676 -2.14437,-23.43245 -6.83472,-34.19528 -9.94273,-22.81535 -27.17833,-41.84439 -46.66842,-57.32128 -9.09209,-7.21994 -18.85277,-13.88116 -26.00917,-23.02335 -3.5782,-4.57109 -6.46058,-9.75164 -7.93786,-15.36556 -1.47727,-5.61392 -1.49684,-11.68071 0.45144,-17.14904 2.717,-7.62593 9.06418,-13.56092 16.27736,-17.23609 8.32258,-4.24041 17.80109,-5.77032 27.14055,-5.91463 9.33946,-0.1443 18.64072,1.03557 27.93799,1.93397 29.53025,2.85353 59.33355,2.87445 88.86778,0.0624 l -71.78467,216.12139 0,3e-5"
       id="path3049-4-8-5-1"
       inkscape:path-effect="#path-effect3051-7-4-4-7"
       inkscape:original-d="m 234.57009,778.86165 c 0,0 -4.75837,-9.32147 -5.37206,-14.41125 -1.34593,-11.16291 -4.74327,-31.33262 3.93178,-33.50131 21.18122,-5.29515 -9.6122,-78.52838 -6.83472,-34.19528 1.79046,28.57901 -33.87071,-47.50146 -46.66842,-57.32128 -53.7285,-41.22646 -27.97818,-74.64377 -33.49559,-55.53795 -8.74826,30.29377 28.41702,-21.24349 16.27736,-17.23609 -13.47476,4.44811 12.88148,-4.81912 55.07854,-3.98066 38.46987,0.76437 77.99068,-13.82712 88.86778,0.0624 37.60857,69.75708 -109.95032,146.66753 -71.78467,216.12139 z"
       inkscape:connector-curvature="0"
       sodipodi:nodetypes="casssssscc" />
    <path
       style="fill:#61cae7;fill-opacity:1;stroke:#ffffff;stroke-width:4.5;stroke-linecap:butt;stroke-linejoin:miter;stroke-miterlimit:4;stroke-opacity:1;stroke-dasharray:none"
       d="m 255.59119,716.88101 c 1.55658,-19.11529 -1.22171,-38.57098 -8.06632,-56.48657 -2.12929,-5.57337 -4.64931,-11.01038 -6.32184,-16.73742 -1.67253,-5.72704 -2.47129,-11.86157 -1.0771,-17.66265 0.64836,-2.69778 1.79382,-5.3268 3.66803,-7.3727 1.87422,-2.0459 4.53581,-3.45787 7.31041,-3.45718 1.63915,4.1e-4 3.24971,0.48099 4.73425,1.17592 1.48455,0.69494 2.8609,1.59928 4.20603,2.53599 2.69028,1.8734 5.36826,3.76611 8.15713,5.48932 l 14.13133,8.73158"
       id="path3057-0-8-5-1"
       inkscape:path-effect="#path-effect3059-1-9-2-1"
       inkscape:original-d="m 255.59119,716.88101 c 0,0 -11.55015,-39.09018 -8.06632,-56.48657 3.61917,-18.07231 -11.05562,-23.35248 -7.39894,-34.40007 8.5077,-25.70352 5.27408,-11.9768 10.97844,-10.82988 23.18398,4.66145 11.68617,5.99265 17.09741,9.20123 l 14.13133,8.73158"
       inkscape:connector-curvature="0"
       sodipodi:nodetypes="cssscc" />
  </g>
</svg>
